# xmcd
#
# Track frame offsets: 
#        150
#        13401
#        25490
#        37650
#        50233
#        71872
#        87382
#        100663
#        116164
#        132006
#        145228
#        163288
#
# Disc length: 2364 seconds
#
# Revision: 2
# Processed by: cddbd v1.5.2PL0 Copyright (c) Steve Scherf et al.
# Submitted via: ExactAudioCopy v0.95b4
#
DISCID=ae093a0c
DTITLE=Doyle Lawson and Quicksilver - You Gotta Dig a Little Deeper
DYEAR=2005
DGENRE=bluegrass
TTITLE0=Heartbreak Number Nine
TTITLE1=Four Walls
TTITLE2=The Girl in the Valley
TTITLE3=You Gotta Dig a Little Deeper
TTITLE4=Saving Grace
TTITLE5=Rosine
TTITLE6=Girl from West Virginia
TTITLE7=Blues for My Darling
TTITLE8=Love Me as You'd Love the Rain
TTITLE9=What Ain't to Be, Just Might Happen
TTITLE10=Oak Valley Girl
TTITLE11=When I'm Knee Deep in Bluegrass
EXTD=
EXTT0=
EXTT1=
EXTT2=
EXTT3=
EXTT4=
EXTT5=
EXTT6=
EXTT7=
EXTT8=
EXTT9=
EXTT10=
EXTT11=
PLAYORDER=
